<?xml version="1.0" encoding="UTF-8"?><svg id="a" xmlns="http://www.w3.org/2000/svg" viewBox="0 0 32.86 32.87"><path d="M20.28,32.86v-.56c0-3.48,0-6.96,0-10.44q0-.59,.59-.6c1.28,0,2.57,0,3.85,0,.27,0,.43-.06,.47-.35,.28-1.7,.57-3.4,.86-5.09,.05-.31-.13-.37-.38-.37-.51,0-1.03,0-1.54,0-1.13,0-2.25,0-3.38,0-.34,0-.49-.08-.48-.45,.02-1.01,.02-2.02,0-3.04,0-.32,.12-.42,.43-.41,1.61,.01,3.22,0,4.83,0,.59,0,.6,0,.6-.6,0-1.54,0-3.08,0-4.62,0-.35-.1-.55-.48-.55-1.98,.02-3.96,0-5.94,.08-1.7,.06-3.01,.92-4.04,2.23-.86,1.1-1.15,2.39-1.16,3.75,0,1,0,2,0,2.99,0,.56-.04,.6-.62,.6-.9,0-1.8,.01-2.69,0-.39,0-.54,.16-.54,.53,0,1.58,0,3.17,0,4.75,0,.4,.17,.55,.57,.54,.93-.02,1.85,0,2.78,0,.36,0,.51,.13,.51,.51,0,3.55,0,7.1,0,10.65,0,.37-.13,.45-.47,.45-3.08-.01-6.16,0-9.24,0-1.47,0-2.66-.61-3.61-1.7C.44,30.29,0,29.28,0,28.1,0,20.32,.01,12.53,0,4.75,0,2.63,1.71,.7,3.45,.21,4.03,.05,4.58,0,5.16,0,12.71,0,20.27,0,27.83,0c2.22,0,3.74,1.06,4.66,3.02,.23,.48,.35,1.06,.35,1.6,.02,7.87,.04,15.74,0,23.61,0,1.87-1.04,3.22-2.67,4.1-.69,.37-1.44,.54-2.24,.53-2.39-.03-4.79-.01-7.19-.01-.13,0-.25,0-.46,0Z"/></svg>