<?xml version="1.0" encoding="UTF-8"?><svg id="a" xmlns="http://www.w3.org/2000/svg" viewBox="0 0 40.46 32.87"><path d="M.93,28.9c4.43,.4,8.35-.67,11.9-3.34-3.71-.33-6.17-2.2-7.56-5.66,1.23,.14,2.38,.17,3.61-.17-1.94-.48-3.48-1.43-4.66-2.92-1.18-1.48-1.76-3.18-1.76-5.14,1.13,.57,2.27,.94,3.52,.97C2.43,9.65,1.61,6.08,3.59,1.79c4.43,5.22,9.97,8.07,16.71,8.53-.03-.81-.1-1.58-.08-2.34,.1-3.34,2.65-6.51,5.89-7.33,3-.76,5.63-.08,7.89,2.04,.17,.16,.31,.2,.54,.15,1.67-.37,3.25-.98,4.83-1.9-.64,1.92-1.77,3.32-3.34,4.4,1.52-.13,2.95-.58,4.43-1.18-1.04,1.52-2.19,2.8-3.59,3.84-.35,.26-.45,.54-.44,.97,.08,3.73-.75,7.26-2.36,10.61-1.94,4.02-4.76,7.28-8.57,9.64-2.71,1.68-5.67,2.68-8.83,3.1-2.77,.37-5.53,.28-8.27-.31-2.61-.56-5.04-1.56-7.3-2.97-.03-.02-.06-.04-.18-.13Z"/></svg>